<svg width="278" height="69" xmlns="http://www.w3.org/2000/svg"><defs><linearGradient x1="0%" y1="50%" x2="100%" y2="50%" id="a"><stop stop-color="#0070B9" offset="0%"/><stop stop-color="#036" offset="100%"/></linearGradient></defs><g fill="none" fill-rule="evenodd"><path d="M18.553 69c.291-1.605.535-2.94.728-3.993.336-1.799 1.516-10.264 15.655-15.407l20.792-7.563L167.485 1.393s17.115-6.225 33.073 7.644C211.274 17.41 243.03 42.192 277.27 69H18.553z" fill="url(#a)" transform="matrix(-1 0 0 1 295.823 0)"/><path d="M228.905 69c-1.886-1.213-4.193-2.373-7.018-3.4l-20.792-7.563L89.339 17.393s-17.116-6.225-33.074 7.644C47.73 31.705 25.85 48.781 0 69h228.905z" fill="#1FA2FF" opacity=".75"/></g></svg>