<svg xmlns="http://www.w3.org/2000/svg" width="205" height="48"><path fill="#231F20" d="M113.824 17.616c-5.622 0-9.411 3.973-9.411 9.533 0 5.562 3.789 9.533 9.411 9.533s9.411-3.972 9.411-9.533c0-5.5-3.789-9.533-9.411-9.533zm0 14.545c-2.628 0-4.217-2.567-4.217-5.012 0-2.506 1.589-5.012 4.217-5.012s4.217 2.567 4.217 5.012c.062 2.445-1.589 5.012-4.217 5.012zM75.935 17.616c-5.622 0-9.411 3.973-9.411 9.533 0 5.562 3.789 9.533 9.411 9.533 5.623 0 9.412-3.972 9.412-9.533.06-5.5-3.79-9.533-9.412-9.533zm0 14.545c-2.627 0-4.216-2.567-4.216-5.012 0-2.506 1.589-5.012 4.216-5.012 2.628 0 4.217 2.567 4.217 5.012.06 2.445-1.528 5.012-4.217 5.012zm29.273-13.933h-3.117v-6.051h-5.073v6.051h-4.155v-6.051h-5.072v6.051h-1.772v4.277h1.772v13.628h5.072V22.505h4.155v13.628h5.073V22.505h3.117v-4.277zm39.661-.551c-2.077 0-4.155 1.039-5.256 2.811-1.161-1.894-2.933-2.811-5.134-2.811-1.648 0-3.422.795-4.399 2.2h-.062v-1.649h-5.072v17.905h5.072v-8.8c0-1.895-.122-5.623 2.689-5.623 2.688 0 2.444 3.545 2.444 5.317v9.105h5.072v-8.739c0-1.833-.061-5.622 2.75-5.622 2.506 0 2.444 3.239 2.444 5.011v9.412h5.072V25.011c.124-3.912-1.037-7.334-5.62-7.334zm-83.907 3.728c1.712-1.101 2.445-3.361 2.445-5.317 0-5.5-3.178-7.456-8.25-7.456h-6.722v27.563h8.434c5.011 0 8.8-2.385 8.8-7.822-.001-3.057-1.468-6.356-4.707-6.968zm-7.149-8.495h.672c2.261 0 3.85.733 3.85 3.545 0 2.872-1.283 3.605-3.911 3.605h-.672v-7.15h.061zm1.099 18.944h-1.161v-7.7h.917c2.688 0 5.623.123 5.623 3.729s-2.445 3.971-5.379 3.971zm124.975-14.177c-1.834 0-3.606.611-4.706 2.262h-.062v-1.65h-5.071v17.906h5.071v-8.923c0-2.139.062-5.5 3.056-5.5 2.872 0 2.812 2.75 2.812 4.889v9.473h5.072V25.193c.06-4.155-1.345-7.516-6.172-7.516zm-26.401 18.456h5.071V5.149h-5.071v30.984zm42.961-18.517c-5.806 0-8.678 4.277-8.678 9.717 0 5.438 3.423 9.35 8.923 9.35 3.788 0 6.906-2.017 8.128-5.561l-4.706-.733c-.672 1.405-1.771 2.444-3.422 2.444-2.689 0-3.545-2.567-3.545-4.828h11.795v-.611c0-5.377-2.628-9.778-8.495-9.778zm-3.177 7.211c.245-1.834 1.406-3.605 3.423-3.605 1.955 0 3.116 1.771 3.422 3.605h-6.845zM164.303 7.654c-1.649 0-3.055 1.405-3.055 3.056s1.343 3.056 3.055 3.056c1.649 0 3.056-1.345 3.056-3.056s-1.344-3.056-3.056-3.056zm-2.506 28.479h5.072V18.228h-5.072v17.905z"/><path fill="#0070B9" d="M35.173 12.665v8.801c0 1.527-2.017 3.178-5.256 5.194s-3.544 2.078-5.439 3.178c-.611.306-.794.489-1.101.551-.305 0-.427-.123-1.1-.429C18.062 27.577 2.417 18.594.889 17.738c-.061-.062-.428-.245-.428-.978v-6.723s0-.855.917-1.345c1.345-.855 9.289-5.806 9.595-5.928s3.605-1.956 8.25-.672c0 0 2.995.917 3.239 4.033s.061 2.505.061 2.505c1.528-.611 6.05-2.139 10.022-.121-.122.002 2.506 1.162 2.628 4.156zm-24.445-2.016L7.062 12.91l3.728 2.139 8.433-4.95c-4.767-1.895-8.495.55-8.495.55zm18.945 7.761s1.65-.794 3.117-2.2c-5.683-2.934-11.122.551-11.122.551l-3.973 2.322 5.317 3.055 6.661-3.728zM1.684 20.978l21.023 12.1c.305.184.855.184 1.161 0l10.877-6.233c.306-.184.55-.062.55.306v6.845c0 .366-.245.795-.55.978l-10.756 6.295c-.305.183-.55.367-.55.367s-.306.121-.611.305L12.5 47.928c-.367.184-.611 0-.611-.367v-6.966c0-.367.244-.795.55-.979 0 0 3.667-2.017 3.667-2.14 0-.121-15.278-8.8-15.278-8.8-.306-.183-.55-.61-.55-.978v-6.845c0-.184.306-.488.673-.305.305.123.427.246.733.43z"/></svg>